<?xml version="1.0" standalone="no"?><!DOCTYPE svg PUBLIC "-//W3C//DTD SVG 1.1//EN" "http://www.w3.org/Graphics/SVG/1.1/DTD/svg11.dtd"><svg t="1724644294011" class="icon" viewBox="0 0 1024 1024" version="1.1" xmlns="http://www.w3.org/2000/svg" p-id="2511" xmlns:xlink="http://www.w3.org/1999/xlink" width="128" height="128"><path d="M644.879 886.426c0-71.304-56.367-129.106-125.887-129.106-69.511 0-125.898 57.802-125.898 129.106 0 71.323 56.388 129.124 125.898 129.124 69.52 0 125.887-57.803 125.887-129.124z m0-387.336c0-71.303-56.367-129.124-125.887-129.124-69.511 0-125.898 57.822-125.898 129.124 0 71.303 56.388 129.106 125.898 129.106 69.52 0 125.887-57.803 125.887-129.106z m0-361.515c0-71.324-56.367-129.125-125.887-129.125-69.511 0-125.898 57.801-125.898 129.125 0 71.304 56.388 129.105 125.898 129.105 69.52-0.001 125.887-57.802 125.887-129.105z" p-id="2512" fill="#ffffff"></path></svg>