<?xml version="1.0" standalone="no"?><!DOCTYPE svg PUBLIC "-//W3C//DTD SVG 1.1//EN" "http://www.w3.org/Graphics/SVG/1.1/DTD/svg11.dtd"><svg t="1724654515911" class="icon" viewBox="0 0 1024 1024" version="1.1" xmlns="http://www.w3.org/2000/svg" p-id="15402" xmlns:xlink="http://www.w3.org/1999/xlink" width="128" height="128"><path d="M192 899.072c-5.632 0-11.264-1.536-15.872-4.096-9.728-5.632-15.872-16.384-15.872-27.648V159.232c0-11.264 6.144-22.016 15.872-27.648 9.728-5.632 22.016-5.632 31.744 0l612.864 353.792c9.728 5.632 15.872 16.384 15.872 27.648s-6.144 22.016-15.872 27.648L207.872 894.464c-4.608 3.072-10.24 4.608-15.872 4.608z" fill="#ffffff" p-id="15403"></path><path d="M837.12 898.56h-60.416c-15.36 0-27.648-12.288-27.648-27.648V155.136c0-15.36 12.288-27.648 27.648-27.648h60.416c15.36 0 27.648 12.288 27.648 27.648V870.4c0 15.872-12.288 28.16-27.648 28.16z" fill="#ffffff" p-id="15404"></path></svg>