<?xml version="1.0" standalone="no"?><!DOCTYPE svg PUBLIC "-//W3C//DTD SVG 1.1//EN" "http://www.w3.org/Graphics/SVG/1.1/DTD/svg11.dtd"><svg t="1721828191650" class="icon" viewBox="0 0 1024 1024" version="1.1" xmlns="http://www.w3.org/2000/svg" p-id="12518" xmlns:xlink="http://www.w3.org/1999/xlink" width="200" height="200"><path d="M450.56 820.48c4.48 4.48 10.88 7.04 16.64 8.96 3.84 1.92 8.32 2.56 12.8 2.56s8.96-0.64 12.8-2.56c6.4-1.28 12.16-3.84 16.64-8.96l313.6-313.6c14.08-14.08 14.08-35.84 0-49.92-14.08-14.08-35.84-14.08-49.92 0L512 718.08V160c0-17.92-14.08-32-32-32s-32 14.08-32 32v558.08L186.88 456.96c-14.08-14.08-35.84-14.08-49.92 0-14.08 14.08-14.08 35.84 0 49.92l313.6 313.6zM864 896H96c-17.92 0-32 14.08-32 32s14.08 32 32 32h768c17.92 0 32-14.08 32-32s-14.08-32-32-32z" p-id="12519" fill="#ffffff"></path></svg>