<?xml version="1.0" standalone="no"?><!DOCTYPE svg PUBLIC "-//W3C//DTD SVG 1.1//EN" "http://www.w3.org/Graphics/SVG/1.1/DTD/svg11.dtd"><svg t="1721136126724" class="icon" viewBox="0 0 1024 1024" version="1.1" xmlns="http://www.w3.org/2000/svg" p-id="14327" xmlns:xlink="http://www.w3.org/1999/xlink" width="200" height="200"><path d="M304.9472 888.576h-172.544a30.72 30.72 0 0 1-30.72-30.72V339.0976a30.72 30.72 0 0 1 30.72-30.72h172.544a30.72 30.72 0 0 1 30.72 30.72v518.7584a30.72 30.72 0 0 1-30.72 30.72z m-141.824-61.44h111.104V369.8176h-111.104zM893.7984 888.576h-172.544a30.72 30.72 0 0 1-30.72-30.72V491.52a30.72 30.72 0 0 1 30.72-30.72h172.544a30.72 30.72 0 0 1 30.72 30.72v366.5408a30.72 30.72 0 0 1-30.72 30.5152z m-141.824-61.44h111.104V522.24h-111.104z" fill="#3E3A39" p-id="14328"></path><path d="M599.296 888.576h-172.544a30.72 30.72 0 0 1-30.72-30.72V155.2384a30.72 30.72 0 0 1 30.72-30.72h172.544a30.72 30.72 0 0 1 30.72 30.72v702.6176a30.72 30.72 0 0 1-30.72 30.72z m-141.824-61.44h111.104V185.9584h-111.104z" fill="#FC4138" p-id="14329"></path></svg>