<?xml version="1.0" standalone="no"?>
<!DOCTYPE svg PUBLIC "-//W3C//DTD SVG 1.1//EN" "http://www.w3.org/Graphics/SVG/1.1/DTD/svg11.dtd"><svg t="1720516143004"
    class="icon" viewBox="0 0 1024 1024" version="1.1" xmlns="http://www.w3.org/2000/svg" p-id="4556"
    xmlns:xlink="http://www.w3.org/1999/xlink" width="200" height="200">
    <path
        d="M85.333333 512a42.666667 42.666667 0 0 1 42.666667-42.666667h768a42.666667 42.666667 0 0 1 0 85.333334h-768A42.666667 42.666667 0 0 1 85.333333 512zM85.333333 256a42.666667 42.666667 0 0 1 42.666667-42.666667h768a42.666667 42.666667 0 0 1 0 85.333334h-768A42.666667 42.666667 0 0 1 85.333333 256zM85.333333 768a42.666667 42.666667 0 0 1 42.666667-42.666667h768a42.666667 42.666667 0 0 1 0 85.333334h-768A42.666667 42.666667 0 0 1 85.333333 768z"
        p-id="4557" fill="#bfbfbf"></path>
</svg>