<?xml version="1.0" standalone="no"?><!DOCTYPE svg PUBLIC "-//W3C//DTD SVG 1.1//EN" "http://www.w3.org/Graphics/SVG/1.1/DTD/svg11.dtd"><svg t="1724643196916" class="icon" viewBox="0 0 1117 1024" version="1.1" xmlns="http://www.w3.org/2000/svg" p-id="4500" xmlns:xlink="http://www.w3.org/1999/xlink" width="139.625" height="128"><path d="M781.963636 116.363636C912.290909 116.363636 1019.345455 225.745455 1024 360.727273v37.236363c-20.945455 307.2-293.236364 451.490909-411.927273 498.036364-18.618182 9.309091-34.909091 11.636364-53.527272 11.636364s-34.909091-2.327273-53.527273-9.309091c-116.363636-48.872727-390.981818-190.836364-411.927273-498.036364v-37.236364C97.745455 225.745455 204.8 116.363636 335.127273 116.363636c86.109091 0 160.581818 46.545455 204.8 118.690909 4.654545 6.981818 11.636364 9.309091 18.618182 9.309091s13.963636-2.327273 18.618181-9.309091C619.054545 162.909091 695.854545 116.363636 781.963636 116.363636m0-93.090909c-83.781818 0-162.909091 30.254545-223.418181 86.109091C498.036364 53.527273 418.909091 23.272727 335.127273 23.272727 155.927273 23.272727 6.981818 169.890909 0 356.072727v48.872728c25.6 358.4 337.454545 523.636364 470.109091 577.163636 27.927273 11.636364 58.181818 16.290909 88.436364 16.290909 30.254545 0 60.509091-4.654545 88.436363-16.290909 132.654545-53.527273 444.509091-218.763636 470.109091-577.163636v-48.872728C1110.109091 169.890909 961.163636 23.272727 781.963636 23.272727z" fill="#ffffff" p-id="4501"></path></svg>