<?xml version="1.0" standalone="no"?><!DOCTYPE svg PUBLIC "-//W3C//DTD SVG 1.1//EN" "http://www.w3.org/Graphics/SVG/1.1/DTD/svg11.dtd"><svg t="1721828064161" class="icon" viewBox="0 0 1024 1024" version="1.1" xmlns="http://www.w3.org/2000/svg" p-id="7818" xmlns:xlink="http://www.w3.org/1999/xlink" width="200" height="200"><path d="M512 64C262.4 64 64 236.8 64 454.4c0 121.6 64 236.8 166.4 307.2V960l198.4-121.6c25.6 6.4 57.6 6.4 83.2 6.4 249.6 0 448-172.8 448-390.4S761.6 64 512 64z m0 729.6c-32 0-64-6.4-96-12.8l-134.4 76.8v-128c-96-57.6-160-160-160-275.2 0-185.6 172.8-332.8 390.4-332.8s390.4 147.2 390.4 332.8c0 185.6-172.8 339.2-390.4 339.2z m140.8-256H371.2c-12.8 0-25.6 12.8-25.6 25.6s12.8 25.6 25.6 25.6h281.6c12.8 0 25.6-12.8 25.6-25.6s-12.8-25.6-25.6-25.6z m57.6-166.4H313.6c-12.8 0-25.6 12.8-25.6 32 0 12.8 12.8 25.6 25.6 25.6H704c12.8 0 25.6-12.8 25.6-25.6 6.4-19.2-6.4-32-19.2-32z" fill="#ffffff" p-id="7819"></path></svg>