<?xml version="1.0" standalone="no"?><!DOCTYPE svg PUBLIC "-//W3C//DTD SVG 1.1//EN" "http://www.w3.org/Graphics/SVG/1.1/DTD/svg11.dtd"><svg t="1721135920122" class="icon" viewBox="0 0 1068 1024" version="1.1" xmlns="http://www.w3.org/2000/svg" p-id="11323" xmlns:xlink="http://www.w3.org/1999/xlink" width="208.59375" height="200"><path d="M762.345739 29.696a40.069565 40.069565 0 0 1-28.360348 49.062957l-247.318261 80.896h474.334609a106.852174 106.852174 0 0 1 106.807652 106.852173v641.024a106.852174 106.852174 0 0 1-106.807652 106.852174H106.76313A106.852174 106.852174 0 0 1 0 907.53113V266.462609a106.852174 106.852174 0 0 1 106.76313-106.852174h122.434783L713.282783 1.424696a40.069565 40.069565 0 0 1 49.062956 28.315826z m105.249391 690.888348H680.737391a40.069565 40.069565 0 0 0 0 80.13913h186.857739a40.069565 40.069565 0 0 0 0-80.13913zM360.403478 490.451478c-61.44-116.068174-201.817043-84.947478-201.817043 50.576696 0 94.875826 201.817043 244.023652 201.817043 244.023652s201.772522-149.147826 201.772522-243.97913c0-135.568696-140.377043-166.689391-201.772522-50.621218z m480.478609 69.854609H707.450435a40.069565 40.069565 0 0 0 0 80.13913h133.476174a40.069565 40.069565 0 0 0 0-80.13913z m26.713043-160.278261H680.737391a40.069565 40.069565 0 0 0 0 80.139131h186.857739a40.069565 40.069565 0 0 0 0-80.139131z" fill="#c9c478" p-id="11324"></path></svg>