<?xml version="1.0" standalone="no"?><!DOCTYPE svg PUBLIC "-//W3C//DTD SVG 1.1//EN" "http://www.w3.org/Graphics/SVG/1.1/DTD/svg11.dtd"><svg t="1724643528872" class="icon" viewBox="0 0 1024 1024" version="1.1" xmlns="http://www.w3.org/2000/svg" p-id="7956" xmlns:xlink="http://www.w3.org/1999/xlink" width="128" height="128"><path d="M290.8 417.7c-29.7 0-53.8 24.1-53.8 53.8 0 29.7 24.1 53.8 53.8 53.8s53.8-24.1 53.8-53.8c-0.1-29.8-24.1-53.8-53.8-53.8zM512.1 417.7c-29.7 0-53.8 24.1-53.8 53.8 0 29.7 24.1 53.8 53.8 53.8 29.7 0 53.8-24.1 53.8-53.8 0-29.8-24.1-53.8-53.8-53.8zM733.4 417.7c-29.7 0-53.8 24.1-53.8 53.8 0 29.7 24.1 53.8 53.8 53.8 29.7 0 53.8-24.1 53.8-53.8 0-29.8-24.1-53.8-53.8-53.8z" fill="#ffffff" p-id="7957"></path><path d="M512.1 104.2C229.8 104.2 0.1 264.5 0.1 461.5c0 108 67.3 207.9 185.3 275.8-2.6 10.7-8.6 27-12.5 37.8-13.8 37.9-24.7 67.9-13 92.1 5.1 10.6 14 18.4 25.1 22.1 4.2 1.4 8.3 2.1 12.7 2.1 20.6 0 46.1-15.6 99.6-50.1 20.7-13.3 51-32.8 63.7-38.2 48.7 10.4 99.4 15.7 150.9 15.7 282.3 0 511.9-160.3 511.9-357.4 0.2-196.9-229.4-357.2-511.7-357.2z m0 648.9c-48.9 0-97-5.2-142.9-15.5-21.8-4.9-44.2 7.8-107.4 48.5-8.8 5.7-19.4 12.5-29.6 18.9 0.9-2.6 1.8-5.1 2.6-7.3 15.4-42.4 32.9-90.5-5.2-111.1C125.6 630.4 66 548.4 66 461.5 66 300.8 266.1 170 512.1 170s446.1 130.8 446.1 291.5c0 160.8-200.1 291.6-446.1 291.6z" fill="#ffffff" p-id="7958"></path></svg>