<?xml version="1.0" standalone="no"?>
<!DOCTYPE svg PUBLIC "-//W3C//DTD SVG 1.1//EN" "http://www.w3.org/Graphics/SVG/1.1/DTD/svg11.dtd"><svg t="1721725763096"
    class="icon" viewBox="0 0 1024 1024" version="1.1" xmlns="http://www.w3.org/2000/svg" p-id="5558"
    xmlns:xlink="http://www.w3.org/1999/xlink" width="200" height="200">
    <path
        d="M512 106.666667a405.333333 405.333333 0 1 0 405.333333 405.333333A405.333333 405.333333 0 0 0 512 106.666667z m0 768a362.666667 362.666667 0 1 1 362.666667-362.666667 362.666667 362.666667 0 0 1-362.666667 362.666667z"
        fill="#faf7f7" p-id="5559"></path>
    <path
        d="M612.48 283.52a21.333333 21.333333 0 0 0-30.293333 0l-200.746667 200.746667a39.466667 39.466667 0 0 0 0 55.466666l200.746667 200.746667a21.333333 21.333333 0 0 0 30.293333 0 21.333333 21.333333 0 0 0 0-30.293333L414.08 512l198.4-198.186667a21.333333 21.333333 0 0 0 0-30.293333z"
        fill="#f7f5f5" p-id="5560"></path>
</svg>