<?xml version="1.0" standalone="no"?><!DOCTYPE svg PUBLIC "-//W3C//DTD SVG 1.1//EN" "http://www.w3.org/Graphics/SVG/1.1/DTD/svg11.dtd"><svg t="1721828258305" class="icon" viewBox="0 0 1024 1024" version="1.1" xmlns="http://www.w3.org/2000/svg" p-id="14396" xmlns:xlink="http://www.w3.org/1999/xlink" width="200" height="200"><path d="M482.133333 646.4c-8.533333 8.533333-21.333333 8.533333-29.866666 0l-168.533334-168.533333c-8.533333-8.533333-21.333333-8.533333-29.866666 0-8.533333 8.533333-8.533333 21.333333 0 29.866666l183.466666 183.466667c17.066667 17.066667 42.666667 17.066667 59.733334 0l315.733333-315.733333c8.533333-8.533333 8.533333-21.333333 0-29.866667-8.533333-8.533333-21.333333-8.533333-29.866667 0L482.133333 646.4z" fill="#ffffff" p-id="14397"></path><path d="M512 0C228.266667 0 0 228.266667 0 512s228.266667 512 512 512 512-228.266667 512-512S795.733333 0 512 0z m0 981.333333C251.733333 981.333333 42.666667 772.266667 42.666667 512S251.733333 42.666667 512 42.666667s469.333333 211.2 469.333333 469.333333-209.066667 469.333333-469.333333 469.333333z" fill="#ffffff" p-id="14398"></path></svg>